<?xml version="1.0" encoding="UTF-8"?>
<svg width="360px" height="360px" viewBox="0 0 360 360" version="1.1" xmlns="http://www.w3.org/2000/svg" xmlns:xlink="http://www.w3.org/1999/xlink">
    <title>Page 1</title>
    <defs>
        <polygon id="path-1" points="0 0.000289462491 360 0.000289462491 360 359.999966 0 359.999966"></polygon>
    </defs>
    <g id="Symbols" stroke="none" stroke-width="1" fill="none" fill-rule="evenodd">
        <g id="Page-1">
            <g id="Group-3">
                <mask id="mask-2" fill="white">
                    <use xlink:href="#path-1"></use>
                </mask>
                <g id="Clip-2"></g>
                <path d="M262.1987,341.595 C141.3217,390.039 48.1417,342.805 9.0417,200.43 C-19.5773,96.216 19.6777,69.275 127.7217,20.716 C254.0257,-36.05 327.6367,29.634 353.3867,147.332 C373.1517,237.67 350.2757,306.296 262.1987,341.595" id="Fill-1" fill="#FF0048" mask="url(#mask-2)"></path>
            </g>
            <path d="M87.8354,163.8099 C87.8354,167.7989 87.3604,170.7879 86.4184,172.7819 C85.4764,174.7759 83.5324,175.7699 80.5964,175.7699 C77.6594,175.7699 75.2444,174.6699 73.3594,172.4669 L73.3614,128.6169 C73.3614,128.6169 77.9124,128.6159 80.5964,128.6159 C85.4214,128.6159 87.8354,131.1879 87.8354,136.3269 L87.8354,163.8099 Z M106.7164,168.2189 L106.7164,136.4839 C106.7164,129.1419 104.4634,123.5279 99.9524,119.6489 C95.4404,115.7659 88.9894,113.8259 80.5964,113.8259 L54.4744,113.8259 L54.4754,207.4319 C54.4754,210.0549 55.9984,211.3669 59.0374,211.3669 L73.3594,211.3669 L73.3594,186.1579 C75.9794,189.0949 79.9134,190.5629 85.1584,190.5629 C91.4524,190.5629 96.6194,188.5689 100.6584,184.5829 C104.6984,180.5979 106.7164,175.1409 106.7164,168.2189 L106.7164,168.2189 Z" id="Fill-4" fill="#FFFFFF"></path>
            <path d="M152.0659,112.136998 C145.2809,112.139 140.6869,115.457 138.2679,121.405 L138.2679,117.631 C138.2679,115.008 136.7449,113.697 133.7059,113.697 L130.9159,113.697 L130.9159,113.694 L119.4129,113.694 L119.3829,184.922 C119.3829,187.545 120.9059,188.857 123.9489,188.857 L138.2679,188.857 L138.2679,145.405 C138.2679,137.091 145.9459,131.774 150.4799,131.302 C152.2189,131.121 152.9009,129.978 152.9009,129.093 L152.9009,113.052 C152.9009,112.572 152.6949,112.136 152.0659,112.136998" id="Fill-6" fill="#FFFFFF"></path>
            <path d="M208.1489,188.8567 L222.4699,188.8567 L222.4679,131.7927 C223.9359,128.5387 226.4019,126.9127 229.8609,126.9127 C234.1639,126.9127 236.3159,129.3777 236.3159,134.3097 L236.3159,185.0797 C236.3159,187.5957 237.7839,188.8567 240.7209,188.8567 L255.1979,188.8567 L255.1969,133.0487 C255.1969,126.5467 253.5199,121.4317 250.1629,117.7097 C246.8059,113.9837 242.3459,112.1227 236.7869,112.1227 C230.0729,112.1227 225.2989,114.6907 222.4679,119.8337 L222.4679,117.6307 C222.4679,115.0077 220.9449,113.6967 217.9049,113.6967 L216.4559,113.6967 L216.4559,113.6937 L198.1809,113.6937 L198.2059,125.7467 C198.2059,127.4327 199.5729,128.7987 201.2589,128.7987 L203.5829,128.7987 L203.5829,185.0797 C203.5829,187.5957 205.1059,188.8567 208.1489,188.8567" id="Fill-8" fill="#FFFFFF"></path>
            <path d="M190.832,188.8567 L190.831,176.8097 C190.831,175.1207 189.461,173.7507 187.771,173.7507 L184.448,173.7507 L184.448,117.6307 C184.448,115.0077 182.929,113.6967 179.886,113.6967 L178.599,113.6967 L178.599,113.6937 L165.569,113.6937 L165.567,185.0797 C165.567,187.5957 167.087,188.8567 170.129,188.8567 L190.832,188.8567 Z" id="Fill-10" fill="#FFFFFF"></path>
            <path d="M295.3418,174.2229 L293.4118,174.2229 C289.0038,174.2229 286.7998,171.9139 286.7998,167.2979 L286.7998,128.4869 L297.8998,128.4869 L297.8998,117.4709 C297.8998,114.9529 296.4318,113.6969 293.4948,113.6969 L286.3448,113.6969 L286.3448,107.7039 C286.3448,105.0829 284.8218,103.7709 281.7828,103.7709 L280.3328,103.7709 L280.3328,103.7679 L267.9188,103.7679 L267.9188,165.2519 C267.9188,173.6459 269.6228,179.6769 273.0348,183.3479 C276.4428,187.0189 282.0808,188.8569 289.9488,188.8569 L299.7468,188.8569 L299.7468,177.9999 C299.7468,175.4799 298.2788,174.2229 295.3418,174.2229" id="Fill-12" fill="#FFFFFF"></path>
            <path d="M180.0996,103.2161 C172.6116,106.1871 166.8396,103.2901 164.4176,94.5621 C162.6446,88.1731 165.0766,86.5221 171.7686,83.5441 C179.5936,80.0651 184.1536,84.0911 185.7486,91.3071 C186.9726,96.8451 185.5556,101.0521 180.0996,103.2161" id="Fill-14" fill="#FFFFFF"></path>
            <path d="M175.4331,214.4075 C172.0641,211.5075 167.2461,210.0585 160.9791,210.0585 C154.7101,210.0585 149.8921,211.5075 146.5231,214.4075 C143.1531,217.3045 141.4701,221.4975 141.4701,226.9815 L141.4701,250.5325 C141.4701,256.0155 143.1531,260.2065 146.5231,263.1065 C149.8921,266.0045 154.7101,267.4555 160.9791,267.4555 C167.2461,267.4555 172.0641,266.0045 175.4331,263.1065 C178.8031,260.2065 180.4881,256.0155 180.4881,250.5325 L180.4881,247.4745 C180.4881,245.5175 179.3511,244.5385 177.0781,244.5385 L169.7911,244.5385 C167.5211,244.5385 166.3841,245.5175 166.3841,247.4745 L166.3841,250.6495 C166.3841,254.4885 164.5831,256.4065 160.9791,256.4065 C157.3751,256.4065 155.5721,254.4885 155.5721,250.6495 L155.5721,226.8635 C155.5721,223.0255 157.3751,221.1045 160.9791,221.1045 C164.5831,221.1045 166.3841,223.0255 166.3841,226.8635 L166.3841,230.0365 C166.3841,231.9955 167.5211,232.9745 169.7911,232.9745 L177.0781,232.9745 C179.3511,232.9745 180.4881,231.9955 180.4881,230.0365 L180.4881,226.9815 C180.4881,221.4975 178.8031,217.3045 175.4331,214.4075" id="Fill-16" fill="#FFFFFF"></path>
            <path d="M213.4819,250.6497 C213.4819,254.4887 211.6809,256.4067 208.0769,256.4067 C204.4739,256.4067 202.6699,254.4887 202.6699,250.6497 L202.6699,226.8637 C202.6699,223.0257 204.4739,221.1047 208.0769,221.1047 C211.6809,221.1047 213.4819,223.0257 213.4819,226.8637 L213.4819,250.6497 Z M222.5309,214.4077 C219.1619,211.5067 214.3439,210.0587 208.0769,210.0587 C201.8079,210.0587 196.9899,211.5067 193.6209,214.4077 C190.2519,217.3047 188.5679,221.4977 188.5679,226.9817 L188.5679,250.5327 C188.5679,256.0157 190.2519,260.2067 193.6209,263.1067 C196.9899,266.0037 201.8079,267.4557 208.0769,267.4557 C214.3439,267.4557 219.1619,266.0037 222.5309,263.1067 C225.8999,260.2067 227.5859,256.0157 227.5859,250.5327 L227.5859,226.9817 C227.5859,221.4977 225.8999,217.3047 222.5309,214.4077 L222.5309,214.4077 Z" id="Fill-18" fill="#FFFFFF"></path>
            <path d="M130.0776,266.556 C124.0976,268.928 119.4866,266.616 117.5526,259.644 C116.1366,254.54 118.0786,253.221 123.4246,250.843 C129.6736,248.064 133.3156,251.281 134.5896,257.043 C135.5676,261.467 134.4356,264.827 130.0776,266.556" id="Fill-20" fill="#FFFFFF"></path>
            <path d="M301.7939,254.9974 L299.7469,254.9974 L299.7469,225.6884 C299.7469,220.7524 298.4939,216.9144 295.9869,214.1724 C293.4799,211.4284 290.0719,210.0584 285.7619,210.0584 C280.5129,210.0584 276.3199,212.2524 273.1879,216.6394 C270.9159,212.4074 266.9979,210.2934 261.4349,210.2934 C256.4999,210.2934 252.9719,212.1354 250.8569,215.8174 L250.8569,214.1724 C250.8569,212.2144 249.7199,211.2344 247.4499,211.2344 L246.2949,211.2344 L246.2949,211.2314 L235.7059,211.2314 L234.9449,211.2314 L232.6629,211.2314 L232.6629,213.6564 L232.6649,213.6564 L232.6649,220.2334 C232.6649,221.4934 233.6859,222.5144 234.9449,222.5144 L236.7529,222.5144 L236.7529,263.4584 C236.7529,265.3384 237.8909,266.2794 240.1629,266.2794 L250.8569,266.2814 L250.8569,224.7494 C251.7959,222.3184 253.5999,221.1044 256.2619,221.1044 C259.5549,221.1044 261.1999,222.9464 261.1999,226.6294 L261.1999,263.4584 C261.1999,265.3384 262.2969,266.2794 264.4899,266.2794 L275.3019,266.2814 L275.3019,224.6304 C276.3199,222.2804 278.1229,221.1044 280.7099,221.1044 C283.9999,221.1044 285.6449,222.9464 285.6449,226.6294 L285.6449,263.4584 C285.6449,265.3384 286.7409,266.2794 288.9349,266.2794 L304.0749,266.2794 L304.0749,257.2774 C304.0749,256.0184 303.0539,254.9974 301.7939,254.9974" id="Fill-22" fill="#FFFFFF"></path>
        </g>
    </g>
</svg>